<svg xmlns="http://www.w3.org/2000/svg" width="40" height="40" fill="none"><path fill="#fff" fill-rule="evenodd" d="M36.206 16.601c0-.908-.737-1.645-1.645-1.645H4.937a1.646 1.646 0 1 0 0 3.291h29.624c.908 0 1.645-.737 1.645-1.646ZM36.206 10.018c0-.908-.737-1.645-1.645-1.645H4.937a1.646 1.646 0 0 0 0 3.291h29.624c.908 0 1.645-.737 1.645-1.646ZM36.206 23.184c0-.909-.737-1.645-1.645-1.645H4.937a1.646 1.646 0 0 0 0 3.291h29.624c.908 0 1.645-.737 1.645-1.646ZM36.206 29.767c0-.909-.737-1.645-1.645-1.645H4.937a1.646 1.646 0 0 0 0 3.291h29.624c.908 0 1.645-.737 1.645-1.646Z" clip-rule="evenodd"/></svg>