<svg width="388" height="68" viewBox="0 0 388 68" fill="none" xmlns="http://www.w3.org/2000/svg">
<path d="M0 1.26172H32.0609V31.5534H0V1.26172Z" fill="white"/>
<path d="M35.833 1.26172H67.8939V31.5534H35.833V1.26172Z" fill="white"/>
<path d="M0 35.3398H32.0609V65.6315H0V35.3398Z" fill="white"/>
<path d="M35.833 35.3398H67.8939V65.6315H35.833V35.3398Z" fill="white"/>
<path d="M25.1273 24.3631H21.6022V14.8452C21.6022 14.4385 21.6059 14.0391 21.6132 13.6472C21.6206 13.2552 21.6316 12.8152 21.6464 12.3271H21.558C21.4769 12.5711 21.4033 12.793 21.3369 12.9927C21.2707 13.185 21.208 13.3698 21.1491 13.5473L17.4362 24.3631H14.5189L10.7396 13.6583C10.6659 13.4438 10.6033 13.2515 10.5518 13.0814C10.5075 12.9113 10.4339 12.6599 10.3307 12.3271H10.2313C10.2534 12.9779 10.2681 13.5584 10.2755 14.0687C10.2829 14.579 10.2865 15.0782 10.2865 15.5663V24.3631H7.01562V8.45557H12.2977L15.5355 17.8847C15.6534 18.2175 15.7491 18.5134 15.8228 18.7722C15.8965 19.0236 15.9886 19.3379 16.099 19.7151H16.1654C16.298 19.3158 16.4011 19.0014 16.4748 18.7722C16.5558 18.5429 16.6626 18.2397 16.7952 17.8625L20.033 8.45557H25.1273V24.3631Z" fill="#9954FF"/>
<path d="M44.8857 24.3631V8.45557H50.4993C53.3136 8.45557 55.4241 9.10267 56.8313 10.3969C58.2384 11.6837 58.9418 13.6213 58.9418 16.2097C58.9418 18.6871 58.172 20.6654 56.6324 22.1445C55.1 23.6236 53.0556 24.3631 50.4993 24.3631H44.8857ZM48.4549 11.4285V21.3902H50.2232C51.7702 21.3902 52.9819 20.9316 53.8588 20.0146C54.7427 19.0902 55.1847 17.8367 55.1847 16.2541C55.1847 14.7528 54.7464 13.5732 53.8698 12.7153C53.0005 11.8575 51.7775 11.4285 50.2011 11.4285H48.4549Z" fill="#9954FF"/>
<path d="M23.0591 54.8217C22.4992 55.9531 21.6335 56.8813 20.4622 57.606C19.2982 58.3234 17.9796 58.6821 16.5062 58.6821C14.0456 58.6821 12.0749 57.998 10.5942 56.6298C9.11344 55.2544 8.37305 53.3094 8.37305 50.7949C8.37305 48.1992 9.10238 46.1247 10.561 44.5717C12.0271 43.0112 13.9277 42.231 16.2631 42.231C17.9427 42.231 19.3314 42.6081 20.4291 43.3623C21.5341 44.1093 22.3813 45.141 22.9706 46.4574L19.8102 47.6443C19.4493 46.8383 18.9851 46.2577 18.4179 45.9028C17.858 45.5403 17.1618 45.3593 16.3294 45.3593C15.1064 45.3593 14.1009 45.8473 13.3126 46.8234C12.5243 47.7923 12.1302 49.0312 12.1302 50.5397C12.1302 52.1298 12.5354 53.3538 13.3457 54.2116C14.1561 55.0693 15.2538 55.4984 16.6388 55.4984C17.4049 55.4984 18.0753 55.321 18.6499 54.9658C19.2245 54.6109 19.6703 54.0859 19.987 53.3907L23.0591 54.8217Z" fill="#9954FF"/>
<path d="M58.4436 51.7894C58.4436 53.8157 57.8801 55.4537 56.7531 56.7035C55.6258 57.9459 53.972 58.5672 51.7913 58.5672C49.6771 58.5672 48.071 57.957 46.9734 56.7368C45.8831 55.5092 45.3379 53.9045 45.3379 51.9224V42.3823H48.9182V51.7894C48.9182 52.9799 49.1945 53.8858 49.747 54.5071C50.2994 55.121 51.0251 55.4279 51.9238 55.4279C52.8007 55.4279 53.5115 55.1321 54.0567 54.5404C54.6019 53.9414 54.8744 53.0687 54.8744 51.9224V42.3823H58.4436V51.7894Z" fill="#9954FF"/>
<path d="M102.481 27.2623H98.5643V16.6869C98.5643 16.2349 98.5684 15.7912 98.5764 15.3557C98.5847 14.9202 98.597 14.4313 98.6134 13.889H98.5151C98.425 14.1601 98.3433 14.4066 98.2696 14.6285C98.196 14.8421 98.1263 15.0476 98.0609 15.2448L93.9353 27.2623H90.694L86.4949 15.3681C86.4129 15.1297 86.3432 14.9161 86.2861 14.7271C86.2369 14.5381 86.1551 14.2587 86.0405 13.889H85.9301C85.9545 14.6121 85.9708 15.2571 85.9791 15.8241C85.9872 16.3911 85.9914 16.9457 85.9914 17.4881V27.2623H82.3571V9.58729H88.2259L91.8235 20.0641C91.9545 20.4339 92.0609 20.7626 92.1429 21.0502C92.2246 21.3296 92.3269 21.6788 92.4496 22.0979H92.5233C92.6707 21.6541 92.7853 21.3049 92.8671 21.0502C92.9571 20.7955 93.0758 20.4586 93.2231 20.0395L96.8207 9.58729H102.481V27.2623ZM107.761 12.9892C107.09 12.9892 106.541 12.7837 106.115 12.3729C105.69 11.9538 105.477 11.4361 105.477 10.8199C105.477 10.1789 105.69 9.65714 106.115 9.25449C106.541 8.85186 107.09 8.65052 107.761 8.65052C108.44 8.65052 108.989 8.85186 109.406 9.25449C109.832 9.65714 110.044 10.1789 110.044 10.8199C110.044 11.4608 109.832 11.9826 109.406 12.3852C108.989 12.7879 108.44 12.9892 107.761 12.9892ZM109.701 27.2623H105.821V14.6408H109.701V27.2623ZM124.079 24.3411C123.514 25.4012 122.744 26.2064 121.77 26.757C120.804 27.2992 119.695 27.5706 118.443 27.5706C116.429 27.5706 114.853 26.9912 113.716 25.8326C112.586 24.6657 112.021 23.1414 112.021 21.2597C112.021 19.1151 112.648 17.4264 113.9 16.1939C115.152 14.9613 116.781 14.345 118.787 14.345C120.023 14.345 121.111 14.6367 122.053 15.2201C122.994 15.7953 123.628 16.6376 123.956 17.7469L120.812 18.9179C120.567 18.3837 120.268 17.9934 119.916 17.7469C119.572 17.4922 119.147 17.3648 118.639 17.3648C117.878 17.3648 117.239 17.6606 116.724 18.2522C116.216 18.8357 115.962 19.7519 115.962 21.0009C115.962 22.1842 116.204 23.0511 116.687 23.6016C117.17 24.1522 117.784 24.4274 118.529 24.4274C119.093 24.4274 119.568 24.3083 119.953 24.07C120.346 23.8235 120.706 23.4332 121.033 22.899L124.079 24.3411ZM134.429 18.0427C134.159 17.9523 133.893 17.8866 133.631 17.8455C133.369 17.7962 133.111 17.7715 132.857 17.7715C132.088 17.7715 131.462 18.0838 130.979 18.7083C130.496 19.3246 130.254 20.1669 130.254 21.2351V27.2623H126.374V14.6408H130.254V16.8841H130.303C130.606 16.0624 131.036 15.4461 131.593 15.0352C132.149 14.6244 132.816 14.419 133.594 14.419C133.897 14.419 134.183 14.4436 134.453 14.4929C134.732 14.534 135.006 14.608 135.276 14.7148L134.429 18.0427ZM142.876 27.5706C140.838 27.5706 139.193 26.9789 137.94 25.7955C136.696 24.6123 136.078 23.0141 136.086 21.0009C136.095 18.9959 136.721 17.3853 137.965 16.1692C139.218 14.9449 140.912 14.3327 143.048 14.3327C145.152 14.3327 146.801 14.9408 147.997 16.1569C149.191 17.373 149.789 18.9137 149.789 20.779C149.789 22.8004 149.142 24.4398 147.849 25.697C146.556 26.9461 144.898 27.5706 142.876 27.5706ZM142.999 24.5384C143.949 24.5384 144.657 24.1932 145.123 23.503C145.598 22.8128 145.835 21.9294 145.835 20.853C145.835 19.7765 145.598 18.9261 145.123 18.3016C144.649 17.6771 143.932 17.3648 142.975 17.3648C142.041 17.3648 141.317 17.7017 140.801 18.3755C140.286 19.0411 140.028 19.8998 140.028 20.9516C140.028 22.0034 140.273 22.8662 140.765 23.54C141.264 24.2056 142.009 24.5384 142.999 24.5384ZM151.238 25.6478L153.067 23.2811C153.706 23.881 154.295 24.2918 154.835 24.5137C155.376 24.7356 155.928 24.8465 156.493 24.8465C157.058 24.8465 157.488 24.752 157.782 24.563C158.085 24.3658 158.236 24.0782 158.236 23.7002C158.236 23.4126 158.093 23.1702 157.807 22.973C157.52 22.7758 157.058 22.6361 156.419 22.5539C154.749 22.3074 153.559 21.8473 152.846 21.1734C152.134 20.4996 151.778 19.6204 151.778 18.5358C151.778 17.3443 152.212 16.3459 153.08 15.5406C153.956 14.7353 155.138 14.3327 156.628 14.3327C157.512 14.3327 158.347 14.4559 159.133 14.7024C159.919 14.949 160.59 15.3228 161.147 15.8241L159.268 18.0797C158.785 17.7182 158.331 17.4552 157.905 17.2908C157.488 17.1183 157.05 17.032 156.591 17.032C156.076 17.032 155.699 17.1265 155.462 17.3155C155.232 17.4963 155.118 17.7551 155.118 18.092C155.118 18.3796 155.265 18.622 155.56 18.8192C155.855 19.0165 156.374 19.1561 157.119 19.2383C158.592 19.4109 159.71 19.8299 160.471 20.4955C161.241 21.1529 161.625 22.0897 161.625 23.3058C161.625 24.6041 161.134 25.6395 160.152 26.4119C159.178 27.1843 157.938 27.5706 156.432 27.5706C155.408 27.5706 154.442 27.4103 153.534 27.0897C152.625 26.7694 151.86 26.2887 151.238 25.6478ZM169.864 27.5706C167.826 27.5706 166.18 26.9789 164.928 25.7955C163.684 24.6123 163.066 23.0141 163.074 21.0009C163.082 18.9959 163.708 17.3853 164.953 16.1692C166.205 14.9449 167.899 14.3327 170.036 14.3327C172.14 14.3327 173.789 14.9408 174.984 16.1569C176.179 17.373 176.777 18.9137 176.777 20.779C176.777 22.8004 176.13 24.4398 174.837 25.697C173.543 26.9461 171.886 27.5706 169.864 27.5706ZM169.987 24.5384C170.936 24.5384 171.644 24.1932 172.111 23.503C172.586 22.8128 172.823 21.9294 172.823 20.853C172.823 19.7765 172.586 18.9261 172.111 18.3016C171.636 17.6771 170.92 17.3648 169.962 17.3648C169.029 17.3648 168.305 17.7017 167.789 18.3755C167.273 19.0411 167.015 19.8998 167.015 20.9516C167.015 22.0034 167.261 22.8662 167.752 23.54C168.251 24.2056 168.996 24.5384 169.987 24.5384ZM186.697 11.8182C186.444 11.6457 186.198 11.5183 185.961 11.4361C185.732 11.354 185.498 11.3129 185.261 11.3129C184.835 11.3129 184.508 11.4485 184.279 11.7196C184.058 11.9908 183.947 12.4058 183.947 12.9645V14.6408H186.82V17.5127H183.947V27.2623H180.08V17.5127H177.968V14.6408H180.08V13.0385C180.08 11.5019 180.497 10.3268 181.332 9.51333C182.167 8.69162 183.382 8.28076 184.978 8.28076C185.543 8.28076 186.079 8.34649 186.587 8.47796C187.103 8.60122 187.627 8.79845 188.158 9.06961L186.697 11.8182ZM196.999 26.3627C196.614 26.7158 196.139 27.0076 195.575 27.2376C195.01 27.4595 194.396 27.5706 193.733 27.5706C192.292 27.5706 191.224 27.2376 190.528 26.5722C189.832 25.9065 189.485 24.9122 189.485 23.5893V17.5127H187.446V14.6408H189.485V11.4238L193.352 10.7336V14.6408H196.373V17.5127H193.352V23.5646C193.352 23.9508 193.434 24.2425 193.598 24.4398C193.77 24.637 194.007 24.7356 194.31 24.7356C194.49 24.7356 194.67 24.7068 194.85 24.6493C195.039 24.5836 195.235 24.4562 195.44 24.2672L196.999 26.3627ZM205.213 27.2623V9.58729H211.45C214.577 9.58729 216.922 10.3063 218.486 11.7443C220.049 13.1741 220.831 15.327 220.831 18.2029C220.831 20.9557 219.975 23.1538 218.265 24.7972C216.562 26.4407 214.291 27.2623 211.45 27.2623H205.213ZM209.179 12.8906V23.9591H211.143C212.862 23.9591 214.209 23.4496 215.183 22.4307C216.165 21.4035 216.656 20.0107 216.656 18.2522C216.656 16.5842 216.169 15.2735 215.195 14.3204C214.229 13.3672 212.87 12.8906 211.119 12.8906H209.179ZM234.423 22.0609H226.221C226.278 22.8744 226.557 23.5235 227.056 24.0084C227.563 24.485 228.227 24.7233 229.045 24.7233C229.544 24.7233 229.999 24.6 230.408 24.3535C230.825 24.107 231.198 23.7372 231.525 23.2442L234.374 24.8711C233.653 25.8078 232.847 26.4939 231.955 26.9296C231.063 27.3568 230.072 27.5706 228.984 27.5706C226.905 27.5706 225.284 27.0076 224.121 25.8818C222.959 24.7479 222.378 23.1702 222.378 21.1488C222.378 19.0534 222.984 17.3936 224.195 16.1692C225.407 14.9449 226.896 14.3327 228.664 14.3327C230.498 14.3327 231.914 14.8791 232.913 15.972C233.92 17.0649 234.423 18.7083 234.423 20.9023V22.0609ZM230.825 19.5958C230.825 18.7329 230.641 18.0879 230.273 17.6606C229.913 17.2251 229.426 17.0074 228.812 17.0074C228.075 17.0074 227.477 17.2539 227.019 17.7469C226.569 18.2399 226.295 18.8562 226.197 19.5958H230.825ZM249.046 14.6408L244.368 27.2623H239.948L235.491 14.6408H239.543L241.765 21.9376C241.88 22.2992 241.97 22.6238 242.035 22.9114C242.109 23.199 242.183 23.5235 242.256 23.8851H242.306C242.387 23.5235 242.465 23.2072 242.539 22.936C242.612 22.6567 242.702 22.3485 242.809 22.0116L245.093 14.6408H249.046ZM262.049 22.0609H253.847C253.904 22.8744 254.184 23.5235 254.681 24.0084C255.189 24.485 255.853 24.7233 256.67 24.7233C257.171 24.7233 257.624 24.6 258.033 24.3535C258.451 24.107 258.823 23.7372 259.152 23.2442L261.999 24.8711C261.28 25.8078 260.473 26.4939 259.58 26.9296C258.69 27.3568 257.699 27.5706 256.61 27.5706C254.531 27.5706 252.909 27.0076 251.747 25.8818C250.585 24.7479 250.004 23.1702 250.004 21.1488C250.004 19.0534 250.61 17.3936 251.822 16.1692C253.032 14.9449 254.523 14.3327 256.291 14.3327C258.124 14.3327 259.54 14.8791 260.538 15.972C261.546 17.0649 262.049 18.7083 262.049 20.9023V22.0609ZM258.451 19.5958C258.451 18.7329 258.267 18.0879 257.9 17.6606C257.538 17.2251 257.053 17.0074 256.437 17.0074C255.702 17.0074 255.104 17.2539 254.646 17.7469C254.196 18.2399 253.92 18.8562 253.821 19.5958H258.451ZM264.43 27.2623V8.57659H268.31V27.2623H264.43ZM277.373 27.5706C275.334 27.5706 273.689 26.9789 272.437 25.7955C271.192 24.6123 270.574 23.0141 270.581 21.0009C270.591 18.9959 271.217 17.3853 272.462 16.1692C273.714 14.9449 275.407 14.3327 277.544 14.3327C279.649 14.3327 281.298 14.9408 282.493 16.1569C283.687 17.373 284.286 18.9137 284.286 20.779C284.286 22.8004 283.639 24.4398 282.344 25.697C281.052 26.9461 279.395 27.5706 277.373 27.5706ZM277.494 24.5384C278.444 24.5384 279.153 24.1932 279.619 23.503C280.094 22.8128 280.33 21.9294 280.33 20.853C280.33 19.7765 280.094 18.9261 279.619 18.3016C279.143 17.6771 278.429 17.3648 277.471 17.3648C276.538 17.3648 275.814 17.7017 275.296 18.3755C274.781 19.0411 274.524 19.8998 274.524 20.9516C274.524 22.0034 274.77 22.8662 275.261 23.54C275.759 24.2056 276.506 24.5384 277.494 24.5384ZM290.487 26.19H290.436V33.0677H286.556V14.6408H290.436V16.2801H290.487C290.969 15.631 291.563 15.1462 292.267 14.8257C292.968 14.497 293.756 14.3327 294.623 14.3327C296.26 14.3327 297.537 14.8791 298.453 15.972C299.371 17.0649 299.828 18.6056 299.828 20.5941C299.828 22.6977 299.298 24.3864 298.234 25.6599C297.168 26.9337 295.782 27.5706 294.07 27.5706C293.31 27.5706 292.621 27.4555 292.008 27.2255C291.394 26.9953 290.886 26.6502 290.487 26.19ZM290.376 20.4709V21.7774C290.376 22.5909 290.625 23.2524 291.123 23.7618C291.623 24.2713 292.254 24.5261 293.014 24.5261C293.881 24.5261 294.57 24.1891 295.078 23.5153C295.594 22.8415 295.85 21.8842 295.85 20.6434C295.85 19.5506 295.621 18.7329 295.164 18.1906C294.714 17.6401 294.067 17.3648 293.222 17.3648C292.413 17.3648 291.734 17.6483 291.186 18.2153C290.645 18.7822 290.376 19.5341 290.376 20.4709ZM313.397 22.0609H305.194C305.252 22.8744 305.531 23.5235 306.029 24.0084C306.537 24.485 307.201 24.7233 308.018 24.7233C308.519 24.7233 308.971 24.6 309.381 24.3535C309.799 24.107 310.171 23.7372 310.498 23.2442L313.347 24.8711C312.627 25.8078 311.82 26.4939 310.928 26.9296C310.037 27.3568 309.047 27.5706 307.958 27.5706C305.878 27.5706 304.256 27.0076 303.095 25.8818C301.933 24.7479 301.352 23.1702 301.352 21.1488C301.352 19.0534 301.958 17.3936 303.168 16.1692C304.38 14.9449 305.871 14.3327 307.639 14.3327C309.472 14.3327 310.887 14.8791 311.886 15.972C312.894 17.0649 313.397 18.7083 313.397 20.9023V22.0609ZM309.799 19.5958C309.799 18.7329 309.615 18.0879 309.245 17.6606C308.886 17.2251 308.4 17.0074 307.784 17.0074C307.048 17.0074 306.452 17.2539 305.994 17.7469C305.541 18.2399 305.267 18.8562 305.169 19.5958H309.799ZM323.832 18.0427C323.563 17.9523 323.297 17.8866 323.035 17.8455C322.774 17.7962 322.515 17.7715 322.261 17.7715C321.491 17.7715 320.865 18.0838 320.382 18.7083C319.9 19.3246 319.658 20.1669 319.658 21.2351V27.2623H315.778V14.6408H319.658V16.8841H319.709C320.01 16.0624 320.44 15.4461 320.996 15.0352C321.554 14.6244 322.221 14.419 322.998 14.419C323.302 14.419 323.589 14.4436 323.858 14.4929C324.137 14.534 324.411 14.608 324.68 14.7148L323.832 18.0427ZM325.417 25.6478L327.247 23.2811C327.886 23.881 328.474 24.2918 329.015 24.5137C329.556 24.7356 330.106 24.8465 330.672 24.8465C331.238 24.8465 331.665 24.752 331.962 24.563C332.264 24.3658 332.415 24.0782 332.415 23.7002C332.415 23.4126 332.271 23.1702 331.985 22.973C331.698 22.7758 331.238 22.6361 330.599 22.5539C328.93 22.3074 327.738 21.8473 327.026 21.1734C326.314 20.4996 325.957 19.6204 325.957 18.5358C325.957 17.3443 326.39 16.3459 327.26 15.5406C328.135 14.7353 329.317 14.3327 330.808 14.3327C331.691 14.3327 332.525 14.4559 333.312 14.7024C334.097 14.949 334.768 15.3228 335.327 15.8241L333.446 18.0797C332.963 17.7182 332.51 17.4552 332.083 17.2908C331.665 17.1183 331.228 17.032 330.77 17.032C330.255 17.032 329.878 17.1265 329.641 17.3155C329.412 17.4963 329.297 17.7551 329.297 18.092C329.297 18.3796 329.445 18.622 329.739 18.8192C330.033 19.0165 330.554 19.1561 331.298 19.2383C332.772 19.4109 333.888 19.8299 334.65 20.4955C335.42 21.1529 335.804 22.0897 335.804 23.3058C335.804 24.6041 335.314 25.6395 334.331 26.4119C333.358 27.1843 332.115 27.5706 330.612 27.5706C329.588 27.5706 328.623 27.4103 327.712 27.0897C326.805 26.7694 326.04 26.2887 325.417 25.6478ZM97.5698 56.8545C96.9477 58.1116 95.9859 59.1428 94.6843 59.9481C93.3911 60.7452 91.9259 61.1438 90.2886 61.1438C87.5548 61.1438 85.3651 60.3837 83.7198 58.8636C82.0745 57.3351 81.252 55.1741 81.252 52.3802C81.252 49.4959 82.0624 47.191 83.6831 45.4654C85.312 43.7317 87.4237 42.8648 90.0185 42.8648C91.8849 42.8648 93.4278 43.2839 94.6474 44.1219C95.8753 44.9519 96.8167 46.0982 97.4715 47.5608L93.9599 48.8797C93.5588 47.9841 93.0431 47.3389 92.4129 46.9446C91.7908 46.542 91.0173 46.3405 90.0922 46.3405C88.7336 46.3405 87.6161 46.883 86.7403 47.9674C85.8644 49.0441 85.4267 50.4203 85.4267 52.0967C85.4267 53.8635 85.8768 55.2233 86.7772 56.1765C87.6775 57.1297 88.8973 57.6063 90.436 57.6063C91.2874 57.6063 92.0322 57.4091 92.6707 57.0146C93.3091 56.6203 93.8045 56.0369 94.1563 55.2645L97.5698 56.8545ZM106.066 61.1438C104.028 61.1438 102.383 60.5521 101.13 59.3687C99.8863 58.1856 99.2682 56.5874 99.2765 54.5741C99.2845 52.5693 99.9107 50.9585 101.155 49.7425C102.407 48.518 104.102 47.9059 106.238 47.9059C108.342 47.9059 109.991 48.514 111.186 49.7302C112.381 50.9464 112.979 52.487 112.979 54.3522C112.979 56.3736 112.332 58.0129 111.039 59.2703C109.746 60.5193 108.088 61.1438 106.066 61.1438ZM106.189 58.1116C107.139 58.1116 107.847 57.7665 108.313 57.0761C108.788 56.386 109.025 55.5028 109.025 54.4261C109.025 53.3498 108.788 52.4993 108.313 51.8748C107.838 51.2503 107.122 50.9381 106.164 50.9381C105.231 50.9381 104.507 51.275 103.991 51.9488C103.476 52.6144 103.218 53.473 103.218 54.5248C103.218 55.5767 103.463 56.4395 103.954 57.1133C104.454 57.7789 105.199 58.1116 106.189 58.1116ZM135.215 60.8356H131.347V53.5388C131.347 52.676 131.179 52.0308 130.844 51.6037C130.508 51.168 130.005 50.9504 129.334 50.9504C128.695 50.9504 128.175 51.2215 127.774 51.7638C127.373 52.2979 127.173 52.9676 127.173 53.7728V60.8356H123.293V53.5633C123.293 52.6924 123.129 52.0392 122.801 51.6037C122.474 51.168 121.979 50.9504 121.316 50.9504C120.653 50.9504 120.121 51.2092 119.72 51.7269C119.327 52.2363 119.13 52.9348 119.13 53.8223V60.8356H115.25V48.2141H119.13V49.7918H119.179C119.58 49.2412 120.141 48.7894 120.862 48.436C121.59 48.0826 122.339 47.9059 123.108 47.9059C124.017 47.9059 124.778 48.0909 125.392 48.4607C126.014 48.8222 126.469 49.2988 126.755 49.8905C127.312 49.2248 127.954 48.7278 128.683 48.3989C129.411 48.0702 130.222 47.9059 131.114 47.9059C132.333 47.9059 133.32 48.3373 134.073 49.2001C134.834 50.0629 135.215 51.3243 135.215 52.984V60.8356ZM158.003 60.8356H154.136V53.5388C154.136 52.676 153.968 52.0308 153.632 51.6037C153.296 51.168 152.793 50.9504 152.122 50.9504C151.483 50.9504 150.964 51.2215 150.563 51.7638C150.162 52.2979 149.961 52.9676 149.961 53.7728V60.8356H146.081V53.5633C146.081 52.6924 145.917 52.0392 145.59 51.6037C145.262 51.168 144.767 50.9504 144.104 50.9504C143.441 50.9504 142.909 51.2092 142.508 51.7269C142.115 52.2363 141.919 52.9348 141.919 53.8223V60.8356H138.039V48.2141H141.919V49.7918H141.968C142.369 49.2412 142.93 48.7894 143.65 48.436C144.379 48.0826 145.127 47.9059 145.897 47.9059C146.805 47.9059 147.567 48.0909 148.181 48.4607C148.803 48.8222 149.257 49.2988 149.543 49.8905C150.1 49.2248 150.743 48.7278 151.471 48.3989C152.2 48.0702 153.01 47.9059 153.902 47.9059C155.122 47.9059 156.108 48.3373 156.861 49.2001C157.623 50.0629 158.003 51.3243 158.003 52.984V60.8356ZM172.774 60.8232H168.894V59.2211H168.845C168.452 59.7961 167.899 60.2603 167.187 60.6137C166.483 60.9588 165.775 61.1314 165.063 61.1314C163.606 61.1314 162.501 60.6877 161.748 59.8001C161.003 58.9128 160.631 57.6598 160.631 56.0409V48.2017H164.498V55.4492C164.498 56.2545 164.67 56.8997 165.014 57.3844C165.358 57.861 165.869 58.0993 166.549 58.0993C167.228 58.0993 167.789 57.8445 168.231 57.3351C168.673 56.8257 168.894 56.1805 168.894 55.4V48.2017H172.774V60.8232ZM187.95 60.8356H184.082V53.5881C184.082 52.7828 183.91 52.1419 183.567 51.6653C183.223 51.1804 182.711 50.9381 182.032 50.9381C181.352 50.9381 180.792 51.1928 180.35 51.7022C179.908 52.2118 179.687 52.8568 179.687 53.6373V60.8356H175.807V48.2141H179.687V49.8165H179.736C180.145 49.2412 180.714 48.781 181.442 48.436C182.171 48.0826 182.903 47.9059 183.64 47.9059C185.056 47.9059 186.129 48.3496 186.857 49.2372C187.586 50.1245 187.95 51.3778 187.95 52.9964V60.8356ZM192.677 46.5624C192.006 46.5624 191.457 46.3569 191.032 45.9462C190.606 45.527 190.393 45.0095 190.393 44.393C190.393 43.7521 190.606 43.2303 191.032 42.8277C191.457 42.4251 192.006 42.2239 192.677 42.2239C193.356 42.2239 193.905 42.4251 194.322 42.8277C194.748 43.2303 194.961 43.7521 194.961 44.393C194.961 45.034 194.748 45.5557 194.322 45.9584C193.905 46.3612 193.356 46.5624 192.677 46.5624ZM194.617 60.8356H190.737V48.2141H194.617V60.8356ZM206.109 59.9359C205.725 60.2891 205.25 60.5809 204.685 60.8109C204.12 61.0327 203.506 61.1438 202.843 61.1438C201.403 61.1438 200.335 60.8109 199.639 60.1455C198.943 59.4798 198.595 58.4855 198.595 57.1625V51.086H196.557V48.2141H198.595V44.9971L202.463 44.3067V48.2141H205.483V51.086H202.463V57.138C202.463 57.5242 202.545 57.8158 202.708 58.0129C202.88 58.2103 203.117 58.3088 203.42 58.3088C203.6 58.3088 203.781 58.28 203.961 58.2224C204.149 58.1568 204.345 58.0293 204.55 57.8405L206.109 59.9359ZM220.598 48.2141L215.171 62.6968C214.679 64.0033 214.017 65.0057 213.182 65.7042C212.355 66.411 211.303 66.7642 210.026 66.7642C209.429 66.7642 208.847 66.6902 208.283 66.5423C207.718 66.4027 207.202 66.1727 206.735 65.8521L208.516 63.3377C208.786 63.5268 209.003 63.6499 209.166 63.7075C209.338 63.7651 209.515 63.7938 209.695 63.7938C210.063 63.7938 210.366 63.7075 210.603 63.5348C210.849 63.3705 211.053 63.1077 211.217 62.746L211.905 61.2054L206.944 48.2141H211.143L213.525 55.6959C213.615 55.9751 213.689 56.2464 213.746 56.5092C213.804 56.7639 213.865 57.0557 213.931 57.3844H213.98C214.045 57.064 214.115 56.7846 214.188 56.5463C214.262 56.2997 214.344 56.0245 214.434 55.7203L216.644 48.2141H220.598ZM230.101 46.5624C229.43 46.5624 228.881 46.3569 228.456 45.9462C228.03 45.527 227.817 45.0095 227.817 44.393C227.817 43.7521 228.03 43.2303 228.456 42.8277C228.881 42.4251 229.43 42.2239 230.101 42.2239C230.78 42.2239 231.329 42.4251 231.746 42.8277C232.172 43.2303 232.385 43.7521 232.385 44.393C232.385 45.034 232.172 45.5557 231.746 45.9584C231.329 46.3612 230.78 46.5624 230.101 46.5624ZM232.041 60.8356H228.161V48.2141H232.041V60.8356ZM247.254 60.8356H243.386V53.5881C243.386 52.7828 243.214 52.1419 242.87 51.6653C242.526 51.1804 242.015 50.9381 241.336 50.9381C240.656 50.9381 240.095 51.1928 239.654 51.7022C239.211 52.2118 238.99 52.8568 238.99 53.6373V60.8356H235.11V48.2141H238.99V49.8165H239.039C239.449 49.2412 240.018 48.781 240.746 48.436C241.475 48.0826 242.207 47.9059 242.944 47.9059C244.36 47.9059 245.432 48.3496 246.161 49.2372C246.889 50.1245 247.254 51.3778 247.254 52.9964V60.8356ZM270.717 53.6128C270.717 55.8642 270.091 57.6843 268.839 59.0731C267.586 60.4534 265.748 61.1438 263.327 61.1438C260.975 61.1438 259.193 60.4658 257.973 59.11C256.761 57.7458 256.155 55.9629 256.155 53.7607V43.1604H260.133V53.6128C260.133 54.9358 260.44 55.9422 261.053 56.6326C261.669 57.3144 262.474 57.6555 263.472 57.6555C264.448 57.6555 265.238 57.3268 265.844 56.6695C266.45 56.0038 266.751 55.0342 266.751 53.7607V43.1604H270.717V53.6128ZM283.363 50.334L277.433 57.865H283.707V60.8356H272.62V58.7157L278.588 51.1847H272.952V48.2141H283.363V50.334ZM289.478 59.6646H289.43V60.8356H285.55V42.1499H289.43V49.7178H289.478C289.969 49.1097 290.562 48.6578 291.259 48.362C291.955 48.0581 292.757 47.9059 293.665 47.9059C295.32 47.9059 296.592 48.4647 297.485 49.5822C298.377 50.6998 298.822 52.2282 298.822 54.1674C298.822 56.2709 298.299 57.9597 297.251 59.2332C296.212 60.5069 294.824 61.1438 293.089 61.1438C292.295 61.1438 291.595 61.0204 290.989 60.774C290.391 60.5274 289.888 60.1576 289.478 59.6646ZM289.368 54.0442V55.3384C289.368 56.1353 289.614 56.797 290.104 57.3228C290.595 57.8405 291.231 58.0993 292.008 58.0993C292.908 58.0993 293.605 57.7625 294.095 57.0885C294.595 56.4148 294.844 55.4576 294.844 54.2166C294.844 53.1895 294.618 52.3883 294.168 51.8132C293.718 51.2299 293.069 50.9381 292.217 50.9381C291.407 50.9381 290.728 51.2256 290.177 51.8009C289.639 52.3761 289.368 53.1238 289.368 54.0442ZM312.389 55.6343H304.189C304.246 56.4476 304.523 57.0968 305.023 57.5815C305.531 58.0581 306.193 58.2964 307.012 58.2964C307.51 58.2964 307.965 58.1732 308.375 57.9268C308.793 57.6802 309.165 57.3104 309.492 56.8174L312.341 58.4443C311.619 59.3811 310.814 60.0672 309.922 60.5029C309.029 60.93 308.038 61.1438 306.95 61.1438C304.873 61.1438 303.251 60.5809 302.089 59.4551C300.927 58.3211 300.344 56.7434 300.344 54.722C300.344 52.6266 300.95 50.9668 302.162 49.7425C303.374 48.518 304.862 47.9059 306.63 47.9059C308.466 47.9059 309.882 48.4524 310.88 49.5451C311.886 50.6382 312.389 52.2815 312.389 54.4756V55.6343ZM308.793 53.169C308.793 52.3062 308.609 51.6613 308.24 51.2339C307.88 50.7985 307.392 50.5806 306.779 50.5806C306.042 50.5806 305.443 50.8272 304.986 51.3202C304.536 51.8132 304.261 52.4294 304.163 53.169H308.793ZM327.368 60.8356H322.666L318.7 54.8207H318.652V60.8356H314.772V42.1499H318.652V53.81H318.7L322.618 48.2141H327.026L322.643 54.1427L327.368 60.8356ZM330.979 46.5624C330.307 46.5624 329.759 46.3569 329.334 45.9462C328.907 45.527 328.696 45.0095 328.696 44.393C328.696 43.7521 328.907 43.2303 329.334 42.8277C329.759 42.4251 330.307 42.2239 330.979 42.2239C331.658 42.2239 332.206 42.4251 332.623 42.8277C333.051 43.2303 333.262 43.7521 333.262 44.393C333.262 45.034 333.051 45.5557 332.623 45.9584C332.206 46.3612 331.658 46.5624 330.979 46.5624ZM332.92 60.8356H329.04V48.2141H332.92V60.8356ZM335.166 59.2211L336.996 56.8545C337.635 57.4543 338.223 57.865 338.764 58.0869C339.305 58.3088 339.855 58.4198 340.421 58.4198C340.987 58.4198 341.414 58.3252 341.711 58.1364C342.013 57.939 342.164 57.6514 342.164 57.2736C342.164 56.9858 342.02 56.7434 341.734 56.5463C341.447 56.3492 340.987 56.2093 340.348 56.1273C338.679 55.8806 337.487 55.4205 336.775 54.7467C336.063 54.073 335.706 53.1938 335.706 52.1091C335.706 50.9176 336.139 49.9192 337.006 49.1137C337.884 48.3085 339.066 47.9059 340.557 47.9059C341.44 47.9059 342.274 48.0293 343.061 48.2757C343.846 48.5223 344.517 48.8961 345.073 49.3975L343.195 51.6529C342.712 51.2915 342.259 51.0284 341.832 50.8641C341.414 50.6914 340.977 50.6054 340.519 50.6054C340.004 50.6054 339.627 50.6998 339.39 50.8888C339.161 51.0696 339.046 51.3283 339.046 51.6653C339.046 51.9528 339.194 52.1952 339.488 52.3926C339.782 52.5897 340.303 52.7293 341.047 52.8116C342.521 52.984 343.637 53.4033 344.399 54.0687C345.169 54.7263 345.553 55.6628 345.553 56.879C345.553 58.1773 345.063 59.2127 344.08 59.9852C343.107 60.7576 341.865 61.1438 340.358 61.1438C339.337 61.1438 338.369 60.9835 337.461 60.6629C336.554 60.3426 335.787 59.862 335.166 59.2211ZM356.175 59.9359C355.79 60.2891 355.315 60.5809 354.749 60.8109C354.186 61.0327 353.57 61.1438 352.909 61.1438C351.468 61.1438 350.399 60.8109 349.702 60.1455C349.008 59.4798 348.659 58.4855 348.659 57.1625V51.086H346.622V48.2141H348.659V44.9971L352.526 44.3067V48.2141H355.549V51.086H352.526V57.138C352.526 57.5242 352.609 57.8158 352.773 58.0129C352.944 58.2103 353.183 58.3088 353.484 58.3088C353.665 58.3088 353.844 58.28 354.025 58.2224C354.214 58.1568 354.41 58.0293 354.613 57.8405L356.175 59.9359ZM368.574 60.8356H364.903V59.4182H364.855C364.388 59.9932 363.839 60.4246 363.208 60.7124C362.587 60.9999 361.888 61.1438 361.109 61.1438C360.045 61.1438 359.125 60.8152 358.348 60.1576C357.571 59.4922 357.181 58.5799 357.181 57.4215C357.181 56.2956 357.553 55.3548 358.297 54.5988C359.044 53.8347 360.14 53.3745 361.589 53.2183L364.928 52.8608V52.4789C364.928 51.8625 364.732 51.3982 364.34 51.086C363.955 50.7737 363.472 50.6175 362.889 50.6175C362.308 50.6175 361.798 50.7533 361.355 51.0244C360.912 51.2955 360.513 51.6981 360.153 52.2323L357.561 50.6793C358.011 49.9561 358.732 49.3152 359.723 48.7563C360.714 48.1893 361.883 47.9059 363.233 47.9059C364.969 47.9059 366.291 48.3537 367.199 49.2495C368.117 50.1452 368.574 51.4926 368.574 53.2922V60.8356ZM364.928 55.7082V55.2274L362.424 55.474C361.843 55.5396 361.418 55.7039 361.146 55.967C360.885 56.2217 360.754 56.5708 360.754 57.0146C360.754 57.4091 360.9 57.7378 361.197 58.0008C361.491 58.2555 361.863 58.3827 362.313 58.3827C363.083 58.3827 363.709 58.1321 364.191 57.631C364.682 57.1213 364.928 56.4804 364.928 55.7082ZM383.541 60.8356H379.674V53.5881C379.674 52.7828 379.503 52.1419 379.158 51.6653C378.814 51.1804 378.303 50.9381 377.624 50.9381C376.945 50.9381 376.385 51.1928 375.942 51.7022C375.5 52.2118 375.278 52.8568 375.278 53.6373V60.8356H371.398V48.2141H375.278V49.8165H375.329C375.738 49.2412 376.307 48.781 377.033 48.436C377.763 48.0826 378.497 47.9059 379.231 47.9059C380.649 47.9059 381.721 48.3496 382.45 49.2372C383.177 50.1245 383.541 51.3778 383.541 52.9964V60.8356Z" fill="white"/>
</svg>
