<svg width="27" height="26" viewBox="0 0 27 26" fill="none" xmlns="http://www.w3.org/2000/svg">
<path fill-rule="evenodd" clip-rule="evenodd" d="M24.9635 24.6451C25.6062 24.0024 25.6062 22.9603 24.9635 22.3176L4.01661 1.37075C3.3739 0.72805 2.33188 0.72805 1.68918 1.37075C1.04647 2.01345 1.04647 3.05548 1.68918 3.69818L22.6361 24.6451C23.2788 25.2878 24.3208 25.2878 24.9635 24.6451Z" fill="white"/>
<path fill-rule="evenodd" clip-rule="evenodd" d="M1.68907 24.645C2.33177 25.2877 3.3738 25.2877 4.0165 24.645L24.9634 3.69817C25.6061 3.05547 25.6061 2.01344 24.9634 1.37074C24.3207 0.72804 23.2786 0.728041 22.6359 1.37074L1.68907 22.3176C1.04637 22.9603 1.04637 24.0023 1.68907 24.645Z" fill="white"/>
</svg>
