<svg xmlns="http://www.w3.org/2000/svg" width="212" height="44" fill="none"><g clip-path="url(#a)"><path fill="#fff" d="M4.476 35.05h1.762l4.385 8.272H8.577l-.71-1.37H2.702l-.708 1.37H.021l4.455-8.273Zm2.675 5.507-1.857-3.57-1.855 3.569 3.712.001ZM10.786 39.185c0-2.833 2.361-4.384 5.378-4.384s4.941 1.383 5.236 3.534l-1.903.13c-.236-1.36-1.416-2.187-3.357-2.187-1.94 0-3.45.943-3.45 2.907s1.5 2.915 3.45 2.915c1.95 0 3.239-.944 3.475-2.312l1.903.201c-.295 2.152-2.352 3.582-5.378 3.582-3.026 0-5.354-1.548-5.354-4.386ZM26.044 35.05h1.755l4.386 8.272h-2.046l-.71-1.37h-5.157l-.71 1.37H21.59l4.455-8.273Zm2.675 5.507-1.865-3.57L25 40.556l3.72.001ZM32.97 35.05h4.721c2.98 0 5.118 1.3 5.118 4.135 0 2.836-2.139 4.137-5.118 4.137H32.97V35.05Zm4.502 6.866c2.204 0 3.44-.852 3.44-2.73 0-1.88-1.229-2.731-3.44-2.731h-2.675v5.46h2.675ZM44.21 35.05h8.367v1.405h-6.536v1.857H52.2v1.347h-6.158v2.257h6.767v1.406H44.21V35.05ZM54.019 35.05h2.675l2.98 6.137 2.977-6.138h2.66v8.273h-1.837v-6.276l-3.108 6.276H58.97l-3.12-6.276v6.276h-1.832V35.05ZM70.057 40.982l-3.925-5.933h2.203l2.696 4.25 2.705-4.25h2.104l-3.947 5.933v2.34h-1.832l-.004-2.34ZM129.826 5.783h-10.148V1.469h25.536v4.314h-10.146v21.063h-5.242V5.783ZM78.697 32.657v-3.91c1.033 0 3.688.034 4.622.034 1.197 0 2.016-.42 2.832-2.194l.586-1.29-8.207-16.39h4.935l5.552 11.904 5.11-11.905h4.647L89.831 28.33c-1.6 3.451-3.708 4.328-5.606 4.328h-5.528ZM100.921 8.906h4.321v2.71c1.148-1.806 3.293-3.388 7.04-3.388 4.017 0 7.824 2.033 7.824 8.002v10.615h-4.493v-9.164c0-3.388-1.3-5.453-4.804-5.453-3.535 0-5.378 2.065-5.378 5.453v9.164h-4.502l-.008-17.939ZM143.994 17.875c0-5.84 4.194-9.647 10.938-9.647 6.71 0 10.485 3.871 10.485 10.544h-16.648c.129 2.904 2.645 4.968 6.137 4.968 3.356 0 5.217-1.573 5.551-3.064h4.879c0 2.564-2.979 6.84-10.467 6.84-6.745.006-10.875-3.83-10.875-9.641Zm16.524-2.16c-.418-2.26-2.518-4.003-5.709-4.003-3.192 0-5.711 1.742-6.034 4.002h11.743ZM167.932 17.875c0-5.84 4.163-9.647 10.906-9.647 6.646 0 10.928 3.5 11.067 7.993l-4.957.01c-.483-2.777-2.85-4.163-6.077-4.163-3.452 0-5.937 2.098-5.937 5.807 0 3.71 2.482 5.812 5.944 5.812 3.322 0 5.857-1.387 6.18-4.484h4.853c-.201 4.895-4.42 8.324-11.066 8.324-6.75-.005-10.913-3.812-10.913-9.652ZM192.083 3.912h4.499v7.446c1.177-1.677 3.291-3.13 6.855-3.13 4.017 0 7.82 2.034 7.82 8.003v10.614h-4.499v-9.163c0-3.388-1.298-5.453-4.801-5.453-3.534 0-5.375 2.065-5.375 5.453v9.164h-4.499V3.912ZM53.702 17.392c0-6.435 4.3-9.587 9.587-9.587 3.79 0 6.083 1.465 7.676 3.312V8.474h4.746v17.702h-4.554v-2.675c-1.654 1.917-4.268 3.344-8.06 3.344-5.223 0-9.395-3.281-9.395-9.453Zm10.765 5.665c3.726 0 6.498-1.814 6.498-5.733 0-3.918-2.772-5.705-6.498-5.705-3.09 0-5.823 1.785-5.823 5.733 0 3.92 2.733 5.705 5.823 5.705ZM30.874 8.467h-4.747v18.378h4.747V8.467Z"/><path fill="#00D4A7" d="M30.874 3.912h-4.747v2.812h4.747V3.912Z"/><path fill="#fff" d="M51.38 8.467H33.422v4.278H51.38V8.467ZM51.38 22.568H33.422v4.277H51.38v-4.277Z"/><path fill="#00D4A7" d="m51.38 17.021-17.957 5.546v-4.279l17.956-5.544v4.277Z"/><path fill="#fff" d="M23.321 13.736c-.019-4.63-1.021-7.372-2.788-9.285C17.557 1.225 13.005.77 11.66.77H0v26.074h11.661c1.344 0 5.896-.455 8.872-3.681 1.767-1.917 2.77-4.66 2.788-9.285v-.07c0-.023.002-.05 0-.073Zm-5.221.14c-.011 2.89-.413 4.61-1.377 5.823-1.634 2.034-4.325 2.138-5.025 2.19-1.178.088-3.77.125-6.404.125V5.604c2.635 0 5.227.038 6.404.125.7.052 3.391.157 5.025 2.192.964 1.202 1.366 2.926 1.377 5.815v.14Z"/></g><defs><clipPath id="a"><path fill="#fff" d="M0 .768h211.257v42.804H0z"/></clipPath></defs></svg>