<svg xmlns="http://www.w3.org/2000/svg" width="110" height="40" fill="none"><path fill="#fff" d="M55.284 3V26.13h30.072V3H55.284Zm25.943 19.183h-3.694V12.016c0-.482-.129-.851-.37-1.092-.24-.241-.61-.386-1.108-.386h-3.326c.127.482.187.98.177 1.478v10.165H69.26V12.016c0-.482-.128-.851-.385-1.092a1.606 1.606 0 0 0-1.14-.386H62.93v11.647h-3.694V8.675a1.697 1.697 0 0 1 .144-.707c.09-.22.227-.418.402-.579a1.843 1.843 0 0 1 1.317-.546h6.65c.557.01 1.11.102 1.64.273a5.18 5.18 0 0 1 1.67.868v-1.14h4.996a5.48 5.48 0 0 1 1.108.128c.398.08.786.205 1.157.373.397.175.77.402 1.108.674.36.27.67.602.916.98.274.407.49.85.642 1.317.168.552.25 1.127.241 1.703v10.164Z"/><path fill="#fff" d="M109.661 26.135H55.284V3.002h54.377v23.133Zm-54.056-.322h53.735V3.323H55.605v22.49Z"/><path fill="#fff" d="M106.368 22.18h-3.695v-8.514a2.976 2.976 0 0 0-.257-1.285 2.889 2.889 0 0 0-.675-.996 2.974 2.974 0 0 0-1.012-.627 3.462 3.462 0 0 0-1.237-.225h-6.457V22.18H89.34V8.67a1.697 1.697 0 0 1 .144-.707c.09-.22.227-.418.402-.578a1.842 1.842 0 0 1 1.317-.546h8.322c.491 0 .981.054 1.461.16a7.401 7.401 0 0 1 2.972 1.398 5.79 5.79 0 0 1 1.221 1.285c.376.534.663 1.125.851 1.75.216.73.319 1.489.306 2.25v8.498h.032ZM72.951 22.18l-.045.003v-.003h.045ZM52.232 17.693a5.55 5.55 0 0 1-.248 1.748c-.155.48-.37.936-.642 1.36-.261.383-.58.722-.945 1.006a5.542 5.542 0 0 1-1.124.665 5.557 5.557 0 0 1-1.192.387 5.87 5.87 0 0 1-1.125.108h-6.803a6.048 6.048 0 0 1-1.717-.278 5.111 5.111 0 0 1-1.724-.892 5.189 5.189 0 0 1-1.314-1.64 5.462 5.462 0 0 1-.525-2.474v-5.108c0-.964.17-1.778.525-2.443.322-.63.77-1.187 1.314-1.639a5.117 5.117 0 0 1 1.717-.912 5.991 5.991 0 0 1 1.724-.28h6.789c.964 0 1.792.17 2.458.527.637.311 1.197.76 1.64 1.314.406.509.71 1.091.896 1.716.18.555.28 1.133.294 1.717v5.118h.002Zm-3.774-5.071c0-.526-.124-.913-.387-1.16-.264-.248-.633-.371-1.124-.371h-6.762c-.495 0-.882.123-1.145.387-.264.263-.386.618-.386 1.113v5.102c0 .496.124.867.386 1.124.262.258.642.388 1.145.388h6.758c.51 0 .897-.124 1.144-.387.247-.264.371-.633.371-1.125v-5.071ZM33.427 11.09h-8.476c-.509 0-.896.124-1.16.388-.263.263-.385.618-.385 1.113v10.376h-3.759V12.59a5.271 5.271 0 0 1 .898-3.078c.268-.382.593-.721.964-1.005.342-.272.716-.5 1.113-.68.383-.166.782-.29 1.19-.371a5.005 5.005 0 0 1 1.125-.124h8.514v3.758h-.024ZM17.36 17.693a6.003 6.003 0 0 1-.124 1.125 5.81 5.81 0 0 1-.371 1.19c-.18.398-.41.773-.681 1.115-.28.374-.62.7-1.006.964a4.933 4.933 0 0 1-1.344.642 5.55 5.55 0 0 1-1.732.248H5.28a7.532 7.532 0 0 1-1.124-.11 7.006 7.006 0 0 1-1.19-.385 5.998 5.998 0 0 1-1.112-.667A4.978 4.978 0 0 1 .89 20.81a5.278 5.278 0 0 1-.643-1.361 5.651 5.651 0 0 1-.247-1.748V.7h3.75v16.994a1.446 1.446 0 0 0 .434 1.115c.295.267.683.41 1.082.402h6.819c.202.013.405-.018.594-.09.188-.07.36-.18.503-.322.273-.299.418-.693.403-1.098v-5.102a1.416 1.416 0 0 0-.09-.595c-.07-.189-.18-.36-.321-.504a1.53 1.53 0 0 0-1.083-.402H5.281V7.324h6.805a6.01 6.01 0 0 1 1.124.124 5.37 5.37 0 0 1 1.175.37c.403.176.781.405 1.124.682.368.28.687.619.943 1.004.281.413.498.867.643 1.346a5.55 5.55 0 0 1 .247 1.725v5.118h.018ZM7.555 32.588c0 2.264-1.11 3.66-2.955 3.66-1.664 0-2.49-.93-2.744-2.31H1.84v2.144H.806v-9.194H1.84v4.335h.03c.285-1.365 1.125-2.28 2.684-2.28 1.965 0 3 1.41 3 3.645Zm-5.714-.045v.09c0 1.62.945 2.684 2.4 2.684 1.5 0 2.28-1.004 2.28-2.73 0-1.74-.736-2.699-2.28-2.699-1.455 0-2.4.96-2.4 2.655Zm7.704-3.435v2.025h.03c.255-1.425.96-2.025 2.115-2.025h.48v1.125h-.57c-1.395 0-2.055.57-2.055 2.025v3.824H8.51v-6.974h1.035Zm5.193 7.124c-1.394 0-2.28-.645-2.28-1.95 0-1.154.796-2.054 2.43-2.054h2.415v-.465c0-1.245-.45-1.905-1.71-1.905-1.125 0-1.725.54-1.92 1.815l-.99-.165c.256-1.695 1.23-2.55 2.94-2.55 1.875 0 2.7.99 2.7 2.775v4.35h-1.02v-1.8h-.03c-.3 1.32-1.32 1.95-2.535 1.95Zm2.565-2.714v-.45h-2.31c-1.005 0-1.514.375-1.514 1.125 0 .585.39 1.154 1.484 1.154 1.44 0 2.34-.794 2.34-1.83Zm3.374-4.41v1.875h.015c.3-1.365 1.23-2.04 2.49-2.04 1.905 0 2.535 1.275 2.535 2.76v4.38h-1.035v-4.155c0-1.02-.435-2.04-1.86-2.04-1.335 0-2.145.735-2.145 2.04v4.154h-1.035v-6.974h1.035Zm5.897 3.495c0-2.265 1.11-3.66 2.955-3.66 1.665 0 2.49.93 2.745 2.31h.015v-4.365h1.035v9.194h-1.035v-2.114h-.03c-.285 1.364-1.125 2.28-2.685 2.28-1.965 0-3-1.41-3-3.645Zm5.715.045v-.09c0-1.62-.945-2.685-2.4-2.685-1.5 0-2.28 1.005-2.28 2.745 0 1.725.735 2.684 2.28 2.684 1.455 0 2.4-.96 2.4-2.654Zm3.61-3.54v6.974h-1.035v-6.974H35.9Zm.105-2.22v1.02h-1.26v-1.02h1.26Zm2.47 2.22v1.875h.014c.3-1.365 1.23-2.04 2.49-2.04 1.905 0 2.535 1.275 2.535 2.76v4.38h-1.035v-4.155c0-1.02-.435-2.04-1.86-2.04-1.335 0-2.145.735-2.145 2.04v4.154h-1.035v-6.974h1.035Zm7.037 4.845.525-.33c-1.005-.315-1.53-1.08-1.53-2.1 0-1.56 1.08-2.415 2.925-2.415h3.315v.915h-1.08c-.375 0-.675 0-1.26-.045v.03c1.035.18 1.785.63 1.785 1.725 0 1.365-.975 2.07-2.88 2.07a4.13 4.13 0 0 1-1.185-.15l-.24.345c-.12.195-.225.285-.225.45 0 .285.24.434.735.434.84 0 1.8-.03 2.625-.03 1.305 0 1.92.57 1.92 1.575 0 1.275-.84 1.905-3.45 1.905-2.64 0-3.42-.57-3.42-1.47 0-.6.54-1.08 1.605-1.215v-.014c-.495-.076-.87-.346-.87-.87 0-.315.33-.63.705-.81Zm1.8-3.945c-1.275 0-1.83.57-1.83 1.515 0 .975.525 1.5 1.86 1.5 1.32 0 1.92-.525 1.92-1.5 0-.96-.69-1.515-1.95-1.515Zm1.755 5.67H46.29c-.96 0-1.335.48-1.335.9 0 .66.54.914 2.505.914 2.145 0 2.595-.36 2.595-1.065 0-.405-.255-.75-.99-.75Z"/></svg>
