<svg width="45" height="43" viewBox="0 0 45 43" fill="none" xmlns="http://www.w3.org/2000/svg">
<path d="M16.6736 25.1006V42.3636H0V22.5743C0 16.5673 1.43157 11.655 4.29472 7.83751C7.15786 4.01998 11.2842 1.57789 16.6736 0.51123V8.25856C14.0912 8.5954 12.042 9.94276 10.5263 12.3006C9.01048 14.6585 8.25259 17.7182 8.25259 21.4795V25.1006H16.6736ZM44.6313 25.1006V42.3636H27.7051V22.5743C27.7051 16.6234 29.1648 11.7392 32.084 7.92172C35.0033 4.10419 39.1858 1.63403 44.6313 0.51123V8.25856C42.0489 8.5954 39.9998 9.94276 38.484 12.3006C36.9682 14.6585 36.2103 17.7182 36.2103 21.4795V25.1006H44.6313Z" fill="#9954FF"/>
</svg>
