<svg width="469" height="106" viewBox="0 0 469 106" fill="none" xmlns="http://www.w3.org/2000/svg">
<g clip-path="url(#clip0_720_47)">
<path d="M50.7002 21.877H81.1581V50.654H50.7002V21.877Z" fill="white"/>
<path d="M84.7412 21.877H115.199V50.654H84.7412V21.877Z" fill="white"/>
<path d="M50.7002 54.252H81.1581V83.029H50.7002V54.252Z" fill="white"/>
<path d="M84.7412 54.252H115.199V83.029H84.7412V54.252Z" fill="white"/>
<path d="M74.5713 43.8241H71.2224V34.7821C71.2224 34.3957 71.226 34.0163 71.233 33.6439C71.24 33.2716 71.2504 32.8535 71.2644 32.3898H71.1804C71.1035 32.6217 71.0335 32.8325 70.9705 33.0221C70.9075 33.2048 70.848 33.3805 70.792 33.5491L67.2647 43.8241H64.4933L60.903 33.6545C60.833 33.4507 60.7736 33.268 60.7246 33.1065C60.6826 32.9449 60.6126 32.706 60.5146 32.3898H60.4201C60.4411 33.0081 60.4551 33.5596 60.4621 34.0444C60.4691 34.5292 60.4726 35.0034 60.4726 35.4671V43.8241H57.3652V28.7119H62.3832L65.4591 37.6696C65.5711 37.9858 65.6621 38.2668 65.732 38.5127C65.802 38.7516 65.8895 39.0502 65.9945 39.4085H66.0575C66.1835 39.0291 66.2814 38.7305 66.3514 38.5127C66.4284 38.2949 66.5299 38.0069 66.6559 37.6485L69.7318 28.7119H74.5713V43.8241Z" fill="#9954FF"/>
<path d="M93.3418 43.8241V28.7119H98.6747C101.348 28.7119 103.353 29.3267 104.69 30.5561C106.027 31.7786 106.695 33.6193 106.695 36.0783C106.695 38.4319 105.964 40.3113 104.501 41.7164C103.045 43.1215 101.103 43.8241 98.6747 43.8241H93.3418ZM96.7325 31.5362V40.9998H98.4124C99.882 40.9998 101.033 40.5642 101.866 39.693C102.706 38.8148 103.126 37.624 103.126 36.1205C103.126 34.6943 102.709 33.5737 101.877 32.7587C101.051 31.9437 99.8889 31.5362 98.3914 31.5362H96.7325Z" fill="#9954FF"/>
<path d="M72.606 72.76C72.0741 73.8348 71.2518 74.7166 70.139 75.4051C69.0332 76.0866 67.7805 76.4274 66.3808 76.4274C64.0432 76.4274 62.1711 75.7775 60.7644 74.4778C59.3577 73.1711 58.6543 71.3233 58.6543 68.9346C58.6543 66.4686 59.3472 64.4979 60.7329 63.0226C62.1256 61.5401 63.9312 60.7988 66.1498 60.7988C67.7455 60.7988 69.0647 61.1571 70.1075 61.8737C71.1573 62.5832 71.9621 63.5633 72.522 64.8139L69.5196 65.9415C69.1767 65.1758 68.7358 64.6243 68.1969 64.2871C67.665 63.9427 67.0036 63.7708 66.2128 63.7708C65.051 63.7708 64.0957 64.2343 63.3469 65.1617C62.598 66.0821 62.2236 67.259 62.2236 68.6921C62.2236 70.2027 62.6085 71.3655 63.3783 72.1804C64.1482 72.9953 65.191 73.4029 66.5067 73.4029C67.2346 73.4029 67.8714 73.2344 68.4173 72.8969C68.9632 72.5598 69.3866 72.061 69.6876 71.4005L72.606 72.76Z" fill="#9954FF"/>
<path d="M106.222 69.8791C106.222 71.8041 105.687 73.3602 104.616 74.5475C103.545 75.7278 101.974 76.318 99.9022 76.318C97.8937 76.318 96.3679 75.7384 95.3252 74.5791C94.2894 73.4129 93.7715 71.8885 93.7715 70.0055V60.9424H97.1727V69.8791C97.1727 71.01 97.4353 71.8707 97.9601 72.4609C98.4849 73.0441 99.1744 73.3357 100.028 73.3357C100.861 73.3357 101.536 73.0547 102.054 72.4925C102.572 71.9235 102.831 71.0945 102.831 70.0055V60.9424H106.222V69.8791Z" fill="#9954FF"/>
<path d="M148.057 46.5784H144.336V36.5317C144.336 36.1024 144.34 35.6808 144.348 35.2671C144.356 34.8534 144.367 34.3889 144.383 33.8737H144.29C144.204 34.1313 144.126 34.3655 144.056 34.5763C143.986 34.7792 143.92 34.9744 143.858 35.1617L139.939 46.5784H136.86L132.87 35.2788C132.793 35.0524 132.726 34.8495 132.672 34.6699C132.625 34.4904 132.548 34.225 132.439 33.8737H132.334C132.357 34.5606 132.373 35.1734 132.38 35.7121C132.388 36.2507 132.392 36.7776 132.392 37.2928V46.5784H128.94V29.7871H134.515L137.933 39.7401C138.057 40.0914 138.158 40.4036 138.236 40.6769C138.314 40.9423 138.411 41.274 138.527 41.6722H138.597C138.737 41.2506 138.846 40.9188 138.924 40.6769C139.01 40.4349 139.122 40.1148 139.262 39.7167L142.68 29.7871H148.057V46.5784ZM153.073 33.0189C152.435 33.0189 151.914 32.8237 151.51 32.4334C151.105 32.0353 150.903 31.5435 150.903 30.958C150.903 30.3491 151.105 29.8535 151.51 29.4709C151.914 29.0884 152.435 28.8972 153.073 28.8972C153.718 28.8972 154.239 29.0884 154.636 29.4709C155.04 29.8535 155.242 30.3491 155.242 30.958C155.242 31.5669 155.04 32.0626 154.636 32.4451C154.239 32.8276 153.718 33.0189 153.073 33.0189ZM154.916 46.5784H151.23V34.588H154.916V46.5784ZM168.575 43.8033C168.038 44.8103 167.307 45.5753 166.382 46.0983C165.464 46.6134 164.411 46.8712 163.221 46.8712C161.308 46.8712 159.811 46.3208 158.73 45.2201C157.657 44.1116 157.12 42.6635 157.12 40.8759C157.12 38.8385 157.715 37.2343 158.905 36.0633C160.095 34.8924 161.642 34.3069 163.548 34.3069C164.722 34.3069 165.756 34.584 166.65 35.1383C167.544 35.6847 168.147 36.4849 168.458 37.5387L165.472 38.6511C165.239 38.1437 164.955 37.7729 164.621 37.5387C164.294 37.2967 163.89 37.1757 163.408 37.1757C162.684 37.1757 162.078 37.4568 161.588 38.0188C161.106 38.5731 160.865 39.4435 160.865 40.63C160.865 41.7541 161.094 42.5777 161.553 43.1007C162.012 43.6237 162.595 43.8852 163.302 43.8852C163.839 43.8852 164.29 43.772 164.656 43.5457C165.029 43.3115 165.371 42.9407 165.682 42.4333L168.575 43.8033ZM178.408 37.8198C178.151 37.7339 177.898 37.6714 177.65 37.6324C177.401 37.5856 177.156 37.5621 176.915 37.5621C176.184 37.5621 175.589 37.8588 175.13 38.4521C174.671 39.0375 174.442 39.8377 174.442 40.8525V46.5784H170.756V34.588H174.442V36.7191H174.489C174.776 35.9384 175.185 35.353 175.713 34.9627C176.242 34.5723 176.876 34.3772 177.615 34.3772C177.902 34.3772 178.175 34.4006 178.431 34.4475C178.696 34.4865 178.956 34.5567 179.213 34.6582L178.408 37.8198ZM186.433 46.8712C184.497 46.8712 182.934 46.3091 181.744 45.1849C180.562 44.0609 179.975 42.5426 179.982 40.63C179.99 38.7253 180.585 37.1953 181.767 36.0399C182.957 34.8768 184.567 34.2952 186.596 34.2952C188.595 34.2952 190.162 34.8729 191.297 36.0282C192.432 37.1836 193 38.6472 193 40.4192C193 42.3396 192.386 43.897 191.157 45.0914C189.928 46.2779 188.354 46.8712 186.433 46.8712ZM186.55 43.9906C187.452 43.9906 188.124 43.6628 188.567 43.007C189.018 42.3513 189.244 41.5121 189.244 40.4895C189.244 39.4669 189.018 38.6589 188.567 38.0657C188.116 37.4724 187.436 37.1757 186.526 37.1757C185.64 37.1757 184.951 37.4958 184.462 38.1359C183.972 38.7682 183.727 39.584 183.727 40.5832C183.727 41.5824 183.96 42.402 184.427 43.0422C184.901 43.6745 185.609 43.9906 186.55 43.9906ZM194.376 45.0446L196.114 42.7963C196.721 43.3661 197.281 43.7564 197.794 43.9672C198.307 44.178 198.832 44.2834 199.369 44.2834C199.905 44.2834 200.313 44.1936 200.593 44.014C200.881 43.8267 201.025 43.5535 201.025 43.1944C201.025 42.9212 200.889 42.6909 200.617 42.5035C200.345 42.3162 199.905 42.1835 199.299 42.1054C197.712 41.8712 196.581 41.4341 195.904 40.7939C195.228 40.1538 194.89 39.3186 194.89 38.2881C194.89 37.1562 195.302 36.2078 196.126 35.4428C196.958 34.6777 198.082 34.2952 199.497 34.2952C200.337 34.2952 201.13 34.4123 201.876 34.6465C202.623 34.8807 203.261 35.2359 203.789 35.7121L202.005 37.8549C201.546 37.5114 201.114 37.2616 200.71 37.1055C200.313 36.9416 199.897 36.8596 199.462 36.8596C198.972 36.8596 198.614 36.9494 198.389 37.1289C198.171 37.3006 198.062 37.5465 198.062 37.8666C198.062 38.1398 198.202 38.3701 198.482 38.5574C198.762 38.7448 199.256 38.8775 199.963 38.9556C201.363 39.1195 202.425 39.5176 203.148 40.1499C203.879 40.7744 204.244 41.6644 204.244 42.8197C204.244 44.0531 203.778 45.0367 202.845 45.7705C201.919 46.5043 200.741 46.8712 199.31 46.8712C198.338 46.8712 197.421 46.7189 196.557 46.4144C195.694 46.1101 194.967 45.6535 194.376 45.0446ZM212.071 46.8712C210.135 46.8712 208.572 46.3091 207.382 45.1849C206.2 44.0609 205.613 42.5426 205.621 40.63C205.628 38.7253 206.223 37.1953 207.405 36.0399C208.595 34.8768 210.205 34.2952 212.234 34.2952C214.233 34.2952 215.8 34.8729 216.935 36.0282C218.071 37.1836 218.638 38.6472 218.638 40.4192C218.638 42.3396 218.024 43.897 216.795 45.0914C215.567 46.2779 213.992 46.8712 212.071 46.8712ZM212.188 43.9906C213.09 43.9906 213.762 43.6628 214.206 43.007C214.657 42.3513 214.882 41.5121 214.882 40.4895C214.882 39.4669 214.657 38.6589 214.206 38.0657C213.755 37.4724 213.074 37.1757 212.164 37.1757C211.278 37.1757 210.59 37.4958 210.1 38.1359C209.61 38.7682 209.365 39.584 209.365 40.5832C209.365 41.5824 209.598 42.402 210.065 43.0422C210.539 43.6745 211.247 43.9906 212.188 43.9906ZM228.063 31.9065C227.822 31.7426 227.588 31.6216 227.363 31.5435C227.145 31.4655 226.924 31.4264 226.698 31.4264C226.294 31.4264 225.983 31.5552 225.765 31.8128C225.555 32.0704 225.45 32.4646 225.45 32.9955V34.588H228.179V37.3163H225.45V46.5784H221.776V37.3163H219.769V34.588H221.776V33.0657C221.776 31.606 222.172 30.4897 222.966 29.7168C223.759 28.9362 224.913 28.5459 226.43 28.5459C226.966 28.5459 227.476 28.6083 227.958 28.7332C228.448 28.8503 228.946 29.0377 229.451 29.2953L228.063 31.9065ZM237.849 45.7237C237.484 46.0592 237.033 46.3364 236.496 46.5549C235.96 46.7657 235.376 46.8712 234.746 46.8712C233.378 46.8712 232.363 46.5549 231.702 45.9228C231.041 45.2904 230.711 44.3458 230.711 43.089V37.3163H228.774V34.588H230.711V31.5318L234.385 30.8761V34.588H237.254V37.3163H234.385V43.0656C234.385 43.4325 234.463 43.7096 234.618 43.897C234.781 44.0843 235.007 44.178 235.295 44.178C235.466 44.178 235.637 44.1507 235.808 44.096C235.987 44.0336 236.173 43.9126 236.368 43.733L237.849 45.7237ZM245.653 46.5784V29.7871H251.578C254.549 29.7871 256.777 30.4701 258.262 31.8362C259.747 33.1945 260.49 35.2398 260.49 37.972C260.49 40.5871 259.677 42.6753 258.052 44.2365C256.434 45.7978 254.276 46.5784 251.578 46.5784H245.653ZM249.42 32.9252V43.4403H251.287C252.92 43.4403 254.199 42.9563 255.124 41.9883C256.057 41.0125 256.524 39.6894 256.524 38.0188C256.524 36.4342 256.061 35.189 255.136 34.2835C254.218 33.378 252.927 32.9252 251.263 32.9252H249.42ZM273.402 41.637H265.61C265.665 42.4099 265.929 43.0265 266.403 43.4871C266.886 43.9399 267.515 44.1663 268.293 44.1663C268.767 44.1663 269.199 44.0492 269.588 43.815C269.984 43.5808 270.338 43.2295 270.649 42.7611L273.355 44.3068C272.671 45.1966 271.905 45.8484 271.057 46.2623C270.21 46.6681 269.269 46.8712 268.235 46.8712C266.26 46.8712 264.72 46.3364 263.616 45.2669C262.512 44.1897 261.959 42.6909 261.959 40.7705C261.959 38.7799 262.535 37.203 263.686 36.0399C264.837 34.8768 266.252 34.2952 267.931 34.2952C269.673 34.2952 271.019 34.8143 271.967 35.8526C272.924 36.8908 273.402 38.4521 273.402 40.5363V41.637ZM269.984 39.2951C269.984 38.4755 269.809 37.8627 269.46 37.4568C269.117 37.043 268.655 36.8362 268.071 36.8362C267.372 36.8362 266.804 37.0704 266.368 37.5387C265.941 38.0071 265.68 38.5926 265.587 39.2951H269.984ZM287.294 34.588L282.85 46.5784H278.651L274.417 34.588H278.266L280.377 41.5199C280.486 41.8634 280.572 42.1717 280.634 42.445C280.704 42.7182 280.774 43.0265 280.844 43.37H280.891C280.968 43.0265 281.042 42.726 281.112 42.4684C281.182 42.203 281.268 41.9103 281.369 41.5902L283.538 34.588H287.294ZM299.647 41.637H291.855C291.909 42.4099 292.175 43.0265 292.648 43.4871C293.13 43.9399 293.761 44.1663 294.537 44.1663C295.013 44.1663 295.443 44.0492 295.832 43.815C296.229 43.5808 296.582 43.2295 296.895 42.7611L299.599 44.3068C298.916 45.1966 298.149 45.8484 297.301 46.2623C296.455 46.6681 295.514 46.8712 294.48 46.8712C292.504 46.8712 290.964 46.3364 289.86 45.2669C288.756 44.1897 288.204 42.6909 288.204 40.7705C288.204 38.7799 288.78 37.203 289.932 36.0399C291.081 34.8768 292.497 34.2952 294.176 34.2952C295.918 34.2952 297.263 34.8143 298.211 35.8526C299.169 36.8908 299.647 38.4521 299.647 40.5363V41.637ZM296.229 39.2951C296.229 38.4755 296.054 37.8627 295.705 37.4568C295.361 37.043 294.9 36.8362 294.315 36.8362C293.618 36.8362 293.049 37.0704 292.614 37.5387C292.187 38.0071 291.924 38.5926 291.831 39.2951H296.229ZM301.909 46.5784V28.8269H305.595V46.5784H301.909ZM314.205 46.8712C312.267 46.8712 310.705 46.3091 309.515 45.1849C308.333 44.0609 307.745 42.5426 307.752 40.63C307.762 38.7253 308.357 37.1953 309.539 36.0399C310.729 34.8768 312.337 34.2952 314.367 34.2952C316.367 34.2952 317.934 34.8729 319.068 36.0282C320.203 37.1836 320.772 38.6472 320.772 40.4192C320.772 42.3396 320.158 43.897 318.927 45.0914C317.7 46.2779 316.125 46.8712 314.205 46.8712ZM314.319 43.9906C315.222 43.9906 315.896 43.6628 316.338 43.007C316.789 42.3513 317.014 41.5121 317.014 40.4895C317.014 39.4669 316.789 38.6589 316.338 38.0657C315.886 37.4724 315.208 37.1757 314.298 37.1757C313.412 37.1757 312.724 37.4958 312.231 38.1359C311.742 38.7682 311.498 39.584 311.498 40.5832C311.498 41.5824 311.732 42.402 312.198 43.0422C312.671 43.6745 313.381 43.9906 314.319 43.9906ZM326.663 45.5597H326.615V52.0935H322.929V34.588H326.615V36.1453H326.663C327.121 35.5286 327.685 35.0681 328.354 34.7636C329.02 34.4513 329.768 34.2952 330.592 34.2952C332.147 34.2952 333.361 34.8143 334.23 35.8526C335.102 36.8908 335.537 38.3545 335.537 40.2436C335.537 42.242 335.033 43.8462 334.023 45.0561C333.01 46.2662 331.693 46.8712 330.067 46.8712C329.345 46.8712 328.691 46.7619 328.108 46.5434C327.525 46.3247 327.042 45.9969 326.663 45.5597ZM326.557 40.1265V41.3677C326.557 42.1405 326.794 42.7689 327.267 43.2529C327.742 43.7369 328.342 43.9789 329.063 43.9789C329.887 43.9789 330.542 43.6588 331.025 43.0187C331.514 42.3786 331.758 41.4692 331.758 40.2904C331.758 39.2522 331.541 38.4755 331.106 37.9603C330.678 37.4372 330.064 37.1757 329.262 37.1757C328.492 37.1757 327.847 37.4451 327.327 37.9837C326.813 38.5223 326.557 39.2366 326.557 40.1265ZM348.427 41.637H340.635C340.69 42.4099 340.955 43.0265 341.428 43.4871C341.911 43.9399 342.541 44.1663 343.318 44.1663C343.793 44.1663 344.223 44.0492 344.612 43.815C345.009 43.5808 345.362 43.2295 345.673 42.7611L348.38 44.3068C347.696 45.1966 346.93 45.8484 346.082 46.2623C345.236 46.6681 344.295 46.8712 343.26 46.8712C341.285 46.8712 339.744 46.3364 338.64 45.2669C337.537 44.1897 336.985 42.6909 336.985 40.7705C336.985 38.7799 337.56 37.203 338.71 36.0399C339.861 34.8768 341.278 34.2952 342.957 34.2952C344.698 34.2952 346.043 34.8143 346.992 35.8526C347.95 36.8908 348.427 38.4521 348.427 40.5363V41.637ZM345.009 39.2951C345.009 38.4755 344.835 37.8627 344.483 37.4568C344.142 37.043 343.681 36.8362 343.095 36.8362C342.396 36.8362 341.829 37.0704 341.395 37.5387C340.965 38.0071 340.704 38.5926 340.611 39.2951H345.009ZM358.341 37.8198C358.085 37.7339 357.832 37.6714 357.584 37.6324C357.335 37.5856 357.089 37.5621 356.848 37.5621C356.117 37.5621 355.522 37.8588 355.064 38.4521C354.605 39.0375 354.376 39.8377 354.376 40.8525V46.5784H350.69V34.588H354.376V36.7191H354.423C354.71 35.9384 355.119 35.353 355.646 34.9627C356.177 34.5723 356.81 34.3772 357.548 34.3772C357.837 34.3772 358.109 34.4006 358.365 34.4475C358.63 34.4865 358.891 34.5567 359.146 34.6582L358.341 37.8198ZM359.846 45.0446L361.585 42.7963C362.192 43.3661 362.751 43.7564 363.265 43.9672C363.778 44.178 364.301 44.2834 364.839 44.2834C365.376 44.2834 365.782 44.1936 366.064 44.014C366.351 43.8267 366.494 43.5535 366.494 43.1944C366.494 42.9212 366.358 42.6909 366.086 42.5035C365.813 42.3162 365.376 42.1835 364.77 42.1054C363.183 41.8712 362.051 41.4341 361.375 40.7939C360.699 40.1538 360.36 39.3186 360.36 38.2881C360.36 37.1562 360.771 36.2078 361.597 35.4428C362.428 34.6777 363.551 34.2952 364.968 34.2952C365.806 34.2952 366.599 34.4123 367.347 34.6465C368.092 34.8807 368.73 35.2359 369.261 35.7121L367.474 37.8549C367.015 37.5114 366.585 37.2616 366.179 37.1055C365.782 36.9416 365.367 36.8596 364.932 36.8596C364.442 36.8596 364.084 36.9494 363.859 37.1289C363.642 37.3006 363.532 37.5465 363.532 37.8666C363.532 38.1398 363.673 38.3701 363.953 38.5574C364.232 38.7448 364.727 38.8775 365.434 38.9556C366.833 39.1195 367.894 39.5176 368.618 40.1499C369.349 40.7744 369.714 41.6644 369.714 42.8197C369.714 44.0531 369.249 45.0367 368.315 45.7705C367.39 46.5043 366.21 46.8712 364.781 46.8712C363.809 46.8712 362.892 46.7189 362.027 46.4144C361.165 46.1101 360.439 45.6535 359.846 45.0446ZM143.392 74.691C142.801 75.8852 141.887 76.8648 140.65 77.6298C139.422 78.3871 138.03 78.7658 136.474 78.7658C133.877 78.7658 131.797 78.0437 130.234 76.5996C128.671 75.1476 127.89 73.0946 127.89 70.4403C127.89 67.7003 128.66 65.5106 130.199 63.8713C131.747 62.2243 133.753 61.4008 136.218 61.4008C137.991 61.4008 139.457 61.7988 140.615 62.595C141.782 63.3835 142.676 64.4725 143.298 65.8619L139.962 67.1149C139.581 66.2641 139.091 65.6511 138.493 65.2765C137.902 64.894 137.167 64.7027 136.288 64.7027C134.997 64.7027 133.936 65.218 133.104 66.2482C132.272 67.271 131.856 68.5785 131.856 70.171C131.856 71.8495 132.283 73.1413 133.139 74.0468C133.994 74.9524 135.153 75.4051 136.614 75.4051C137.423 75.4051 138.131 75.2178 138.737 74.843C139.344 74.4684 139.815 73.9142 140.149 73.1804L143.392 74.691ZM151.463 78.7658C149.527 78.7658 147.964 78.2037 146.774 77.0795C145.592 75.9555 145.005 74.4372 145.013 72.5245C145.021 70.62 145.615 69.0897 146.797 67.9346C147.987 66.7713 149.597 66.1897 151.626 66.1897C153.625 66.1897 155.192 66.7674 156.327 67.9228C157.463 69.0782 158.03 70.5418 158.03 72.3137C158.03 74.2341 157.416 75.7914 156.187 76.9859C154.959 78.1725 153.384 78.7658 151.463 78.7658ZM151.58 75.8852C152.482 75.8852 153.155 75.5574 153.598 74.9015C154.049 74.2459 154.274 73.4068 154.274 72.384C154.274 71.3615 154.049 70.5535 153.598 69.9603C153.147 69.367 152.466 69.0703 151.556 69.0703C150.67 69.0703 149.982 69.3905 149.492 70.0305C149.002 70.6629 148.757 71.4785 148.757 72.4778C148.757 73.4771 148.99 74.2967 149.457 74.9368C149.931 75.5691 150.639 75.8852 151.58 75.8852ZM179.154 78.473H175.48V71.5411C175.48 70.7214 175.321 70.1085 175.002 69.7027C174.683 69.2888 174.205 69.0821 173.567 69.0821C172.961 69.0821 172.467 69.3396 172.086 69.8547C171.705 70.3622 171.514 70.9984 171.514 71.7634V78.473H167.828V71.5643C167.828 70.737 167.673 70.1164 167.362 69.7027C167.051 69.2888 166.58 69.0821 165.95 69.0821C165.32 69.0821 164.815 69.3279 164.434 69.8197C164.061 70.3037 163.874 70.9672 163.874 71.8104V78.473H160.188V66.4825H163.874V67.9813H163.921C164.302 67.4583 164.834 67.0291 165.519 66.6933C166.211 66.3576 166.922 66.1897 167.653 66.1897C168.516 66.1897 169.24 66.3655 169.823 66.7168C170.414 67.0602 170.846 67.513 171.118 68.0751C171.647 67.4427 172.257 66.9706 172.949 66.6581C173.641 66.3459 174.411 66.1897 175.258 66.1897C176.417 66.1897 177.354 66.5996 178.07 67.4192C178.793 68.2389 179.154 69.4372 179.154 71.014V78.473ZM200.803 78.473H197.129V71.5411C197.129 70.7214 196.97 70.1085 196.651 69.7027C196.332 69.2888 195.854 69.0821 195.216 69.0821C194.61 69.0821 194.116 69.3396 193.735 69.8547C193.354 70.3622 193.163 70.9984 193.163 71.7634V78.473H189.477V71.5643C189.477 70.737 189.322 70.1164 189.011 69.7027C188.7 69.2888 188.229 69.0821 187.599 69.0821C186.969 69.0821 186.464 69.3279 186.083 69.8197C185.71 70.3037 185.523 70.9672 185.523 71.8104V78.473H181.837V66.4825H185.523V67.9813H185.57C185.951 67.4583 186.483 67.0291 187.168 66.6933C187.86 66.3576 188.571 66.1897 189.302 66.1897C190.165 66.1897 190.889 66.3655 191.472 66.7168C192.063 67.0602 192.494 67.513 192.767 68.0751C193.295 67.4427 193.906 66.9706 194.598 66.6581C195.29 66.3459 196.06 66.1897 196.907 66.1897C198.066 66.1897 199.003 66.5996 199.719 67.4192C200.442 68.2389 200.803 69.4372 200.803 71.014V78.473ZM214.836 78.4612H211.15V76.9392H211.103C210.73 77.4855 210.205 77.9265 209.528 78.2622C208.86 78.59 208.187 78.754 207.51 78.754C206.126 78.754 205.076 78.3325 204.361 77.4893C203.653 76.6464 203.3 75.456 203.3 73.9181V66.4708H206.974V73.3559C206.974 74.1209 207.137 74.7339 207.464 75.1943C207.79 75.6471 208.276 75.8735 208.922 75.8735C209.567 75.8735 210.1 75.6315 210.52 75.1476C210.94 74.6636 211.15 74.0507 211.15 73.3092V66.4708H214.836V78.4612ZM229.252 78.473H225.578V71.5878C225.578 70.8228 225.415 70.214 225.088 69.7612C224.762 69.3005 224.276 69.0703 223.63 69.0703C222.985 69.0703 222.452 69.3123 222.032 69.7962C221.612 70.2804 221.402 70.8931 221.402 71.6346V78.473H217.716V66.4825H221.402V68.0049H221.449C221.838 67.4583 222.378 67.0212 223.07 66.6933C223.763 66.3576 224.459 66.1897 225.158 66.1897C226.504 66.1897 227.522 66.6113 228.215 67.4545C228.907 68.2974 229.252 69.4881 229.252 71.0257V78.473ZM233.743 64.9135C233.106 64.9135 232.585 64.7183 232.18 64.3281C231.776 63.9298 231.574 63.4382 231.574 62.8526C231.574 62.2437 231.776 61.748 232.18 61.3655C232.585 60.983 233.106 60.7919 233.743 60.7919C234.389 60.7919 234.91 60.983 235.306 61.3655C235.711 61.748 235.913 62.2437 235.913 62.8526C235.913 63.4614 235.711 63.9571 235.306 64.3396C234.91 64.7223 234.389 64.9135 233.743 64.9135ZM235.586 78.473H231.9V66.4825H235.586V78.473ZM246.504 77.6183C246.139 77.9538 245.688 78.231 245.151 78.4495C244.615 78.6603 244.031 78.7658 243.401 78.7658C242.033 78.7658 241.018 78.4495 240.357 77.8174C239.696 77.185 239.365 76.2404 239.365 74.9835V69.2108H237.429V66.4825H239.365V63.4264L243.04 62.7705V66.4825H245.909V69.2108H243.04V74.9603C243.04 75.3272 243.118 75.6042 243.273 75.7914C243.436 75.979 243.662 76.0725 243.95 76.0725C244.121 76.0725 244.292 76.0452 244.463 75.9905C244.642 75.9281 244.828 75.807 245.023 75.6277L246.504 77.6183ZM260.268 66.4825L255.112 80.2411C254.646 81.4824 254.016 82.4346 253.223 83.0982C252.437 83.7696 251.438 84.1051 250.225 84.1051C249.657 84.1051 249.105 84.0349 248.569 83.8943C248.032 83.7617 247.542 83.5433 247.099 83.2387L248.79 80.85C249.047 81.0296 249.253 81.1466 249.408 81.2013C249.572 81.256 249.739 81.2833 249.91 81.2833C250.26 81.2833 250.548 81.2013 250.773 81.0373C251.007 80.8811 251.201 80.6315 251.357 80.2879L252.01 78.8243L247.297 66.4825H251.287L253.549 73.5902C253.635 73.8555 253.705 74.1133 253.759 74.3629C253.814 74.6049 253.872 74.8821 253.934 75.1943H253.981C254.043 74.89 254.109 74.6245 254.179 74.3982C254.249 74.1639 254.327 73.9025 254.413 73.6135L256.512 66.4825H260.268ZM269.296 64.9135C268.659 64.9135 268.138 64.7183 267.733 64.3281C267.329 63.9298 267.127 63.4382 267.127 62.8526C267.127 62.2437 267.329 61.748 267.733 61.3655C268.138 60.983 268.659 60.7919 269.296 60.7919C269.942 60.7919 270.463 60.983 270.859 61.3655C271.264 61.748 271.466 62.2437 271.466 62.8526C271.466 63.4614 271.264 63.9571 270.859 64.3396C270.463 64.7223 269.942 64.9135 269.296 64.9135ZM271.139 78.473H267.453V66.4825H271.139V78.473ZM285.591 78.473H281.917V71.5878C281.917 70.8228 281.754 70.214 281.427 69.7612C281.1 69.3005 280.615 69.0703 279.969 69.0703C279.324 69.0703 278.791 69.3123 278.371 69.7962C277.951 70.2804 277.741 70.8931 277.741 71.6346V78.473H274.055V66.4825H277.741V68.0049H277.788C278.177 67.4583 278.717 67.0212 279.409 66.6933C280.101 66.3576 280.797 66.1897 281.497 66.1897C282.842 66.1897 283.861 66.6113 284.553 67.4545C285.245 68.2974 285.591 69.4881 285.591 71.0257V78.473ZM307.881 71.6113C307.881 73.7502 307.287 75.4792 306.097 76.7986C304.907 78.1099 303.161 78.7658 300.861 78.7658C298.627 78.7658 296.933 78.1217 295.775 76.8337C294.623 75.5377 294.048 73.844 294.048 71.7519V61.6816H297.827V71.6113C297.827 72.8682 298.118 73.8243 298.701 74.4802C299.286 75.1279 300.051 75.4519 300.999 75.4519C301.926 75.4519 302.676 75.1396 303.252 74.5152C303.827 73.8828 304.114 72.9617 304.114 71.7519V61.6816H307.881V71.6113ZM319.895 68.4965L314.262 75.6509H320.222V78.473H309.69V76.4591L315.358 69.3046H310.005V66.4825H319.895V68.4965ZM325.705 77.3605H325.659V78.473H321.973V60.7216H325.659V67.9111H325.705C326.17 67.3334 326.734 66.9041 327.396 66.6231C328.058 66.3343 328.82 66.1897 329.682 66.1897C331.254 66.1897 332.463 66.7207 333.311 67.7823C334.159 68.8439 334.582 70.296 334.582 72.1382C334.582 74.1365 334.085 75.7408 333.089 76.9507C332.102 78.1608 330.783 78.7658 329.135 78.7658C328.38 78.7658 327.716 78.6485 327.14 78.4145C326.572 78.1802 326.094 77.8289 325.705 77.3605ZM325.599 72.0212V73.2507C325.599 74.0078 325.834 74.6363 326.299 75.1358C326.765 75.6277 327.37 75.8735 328.108 75.8735C328.963 75.8735 329.625 75.5536 330.091 74.9133C330.566 74.2732 330.802 73.3639 330.802 72.185C330.802 71.2092 330.587 70.448 330.16 69.9017C329.732 69.3475 329.116 69.0703 328.306 69.0703C327.537 69.0703 326.892 69.3435 326.369 69.89C325.857 70.4365 325.599 71.1468 325.599 72.0212ZM347.469 73.5317H339.679C339.734 74.3044 339.997 74.9212 340.472 75.3816C340.955 75.8344 341.583 76.0607 342.362 76.0607C342.835 76.0607 343.267 75.9437 343.657 75.7097C344.053 75.4754 344.407 75.1241 344.717 74.6557L347.424 76.2013C346.738 77.0912 345.974 77.743 345.126 78.1569C344.278 78.5627 343.337 78.7658 342.302 78.7658C340.329 78.7658 338.788 78.231 337.685 77.1615C336.581 76.0843 336.027 74.5854 336.027 72.6651C336.027 70.6744 336.603 69.0977 337.754 67.9346C338.905 66.7713 340.32 66.1897 341.999 66.1897C343.743 66.1897 345.088 66.7089 346.036 67.7471C346.992 68.7854 347.469 70.3466 347.469 72.431V73.5317ZM344.053 71.1898C344.053 70.3701 343.879 69.7574 343.528 69.3514C343.186 68.9377 342.723 68.7308 342.14 68.7308C341.44 68.7308 340.871 68.965 340.437 69.4334C340.009 69.9017 339.749 70.4871 339.655 71.1898H344.053ZM361.7 78.473H357.233L353.465 72.7588H353.42V78.473H349.734V60.7216H353.42V71.7986H353.465L357.187 66.4825H361.375L357.211 72.1147L361.7 78.473ZM365.13 64.9135C364.492 64.9135 363.972 64.7183 363.568 64.3281C363.162 63.9298 362.961 63.4382 362.961 62.8526C362.961 62.2437 363.162 61.748 363.568 61.3655C363.972 60.983 364.492 60.7919 365.13 60.7919C365.775 60.7919 366.296 60.983 366.693 61.3655C367.099 61.748 367.299 62.2437 367.299 62.8526C367.299 63.4614 367.099 63.9571 366.693 64.3396C366.296 64.7223 365.775 64.9135 365.13 64.9135ZM366.974 78.473H363.288V66.4825H366.974V78.473ZM369.108 76.9392L370.847 74.691C371.454 75.2607 372.012 75.6509 372.526 75.8617C373.04 76.0725 373.563 76.178 374.1 76.178C374.638 76.178 375.044 76.0881 375.326 75.9087C375.613 75.7212 375.756 75.448 375.756 75.089C375.756 74.8157 375.62 74.5854 375.347 74.3982C375.075 74.2109 374.638 74.078 374.031 74.0001C372.445 73.7658 371.313 73.3286 370.637 72.6886C369.96 72.0485 369.621 71.2133 369.621 70.1828C369.621 69.0509 370.032 68.1025 370.856 67.3372C371.69 66.5722 372.813 66.1897 374.229 66.1897C375.068 66.1897 375.861 66.307 376.609 66.5411C377.354 66.7754 377.992 67.1305 378.52 67.6068L376.735 69.7495C376.277 69.4061 375.847 69.1562 375.441 69.0001C375.044 68.836 374.628 68.7543 374.194 68.7543C373.704 68.7543 373.345 68.8439 373.121 69.0236C372.904 69.1953 372.794 69.4411 372.794 69.7612C372.794 70.0344 372.935 70.2646 373.214 70.4521C373.494 70.6394 373.988 70.772 374.695 70.8502C376.095 71.014 377.156 71.4123 377.88 72.0444C378.611 72.6691 378.976 73.5588 378.976 74.7142C378.976 75.9476 378.51 76.9313 377.576 77.6651C376.652 78.3989 375.472 78.7658 374.041 78.7658C373.071 78.7658 372.151 78.6135 371.289 78.309C370.426 78.0046 369.698 77.548 369.108 76.9392ZM389.067 77.6183C388.701 77.9538 388.25 78.231 387.712 78.4495C387.177 78.6603 386.592 78.7658 385.963 78.7658C384.595 78.7658 383.579 78.4495 382.918 77.8174C382.258 77.185 381.926 76.2404 381.926 74.9835V69.2108H379.991V66.4825H381.926V63.4264L385.6 62.7705V66.4825H388.472V69.2108H385.6V74.9603C385.6 75.3272 385.679 75.6042 385.834 75.7914C385.997 75.979 386.224 76.0725 386.51 76.0725C386.682 76.0725 386.852 76.0452 387.024 75.9905C387.203 75.9281 387.39 75.807 387.583 75.6277L389.067 77.6183ZM400.846 78.473H397.358V77.1265H397.313C396.868 77.6727 396.348 78.0826 395.748 78.356C395.158 78.6291 394.494 78.7658 393.753 78.7658C392.743 78.7658 391.869 78.4536 391.13 77.8289C390.392 77.1967 390.022 76.3301 390.022 75.2296C390.022 74.16 390.376 73.2663 391.083 72.548C391.792 71.8221 392.834 71.385 394.21 71.2365L397.382 70.8969V70.5341C397.382 69.9485 397.196 69.5075 396.823 69.2108C396.458 68.9142 395.999 68.7658 395.445 68.7658C394.893 68.7658 394.408 68.8948 393.988 69.1523C393.567 69.4099 393.187 69.7924 392.846 70.2998L390.383 68.8245C390.81 68.1375 391.496 67.5286 392.437 66.9977C393.378 66.459 394.489 66.1897 395.772 66.1897C397.42 66.1897 398.677 66.6152 399.539 67.4662C400.411 68.3171 400.846 69.5972 400.846 71.3068V78.473ZM397.382 73.602V73.1452L395.003 73.3794C394.451 73.4418 394.047 73.5979 393.789 73.8478C393.541 74.0898 393.417 74.4214 393.417 74.843C393.417 75.2178 393.555 75.5301 393.837 75.7799C394.117 76.0219 394.47 76.1428 394.898 76.1428C395.629 76.1428 396.224 75.9046 396.682 75.4286C397.148 74.9444 397.382 74.3356 397.382 73.602ZM415.064 78.473H411.39V71.5878C411.39 70.8228 411.228 70.214 410.901 69.7612C410.573 69.3005 410.088 69.0703 409.443 69.0703C408.798 69.0703 408.266 69.3123 407.845 69.7962C407.425 70.2804 407.215 70.8931 407.215 71.6346V78.473H403.529V66.4825H407.215V68.0049H407.262C407.652 67.4583 408.192 67.0212 408.882 66.6933C409.575 66.3576 410.272 66.1897 410.97 66.1897C412.317 66.1897 413.335 66.6113 414.028 67.4545C414.718 68.2974 415.064 69.4881 415.064 71.0257V78.473Z" fill="white"/>
</g>
<defs>
<clipPath id="clip0_720_47">
<rect width="368.6" height="63.7892" fill="white" transform="translate(50.7002 20.6787)"/>
</clipPath>
</defs>
</svg>
